<?xml version="1.0" encoding="UTF-8" standalone="no"?><!-- Generator: Gravit.io --><svg xmlns="http://www.w3.org/2000/svg" xmlns:xlink="http://www.w3.org/1999/xlink" style="isolation:isolate" viewBox="0 0 300 300" width="300pt" height="300pt"><defs><clipPath id="_clipPath_0HwZqvXnCuUe033FXCivlqOIUvCfM2WI"><rect width="300" height="300"/></clipPath></defs><g clip-path="url(#_clipPath_0HwZqvXnCuUe033FXCivlqOIUvCfM2WI)"><rect width="300" height="300" style="fill:rgb(0,0,0)" fill-opacity="0"/><path d=" M 117.328 63.172 C -123.922 101.422 72.953 335.297 199.328 242.172 C 325.703 149.047 358.578 24.922 117.328 63.172 Z " fill="rgb(182,210,230)"/><g><linearGradient id="_lgradient_2" x1="0.4360785631303479" y1="0.2644297796601043" x2="0.9219063204021927" y2="1.0642734950942871" gradientTransform="matrix(29.542,0,0,51.051,70.218,104.53)" gradientUnits="userSpaceOnUse"><stop offset="0%" stop-opacity="1" style="stop-color:rgb(231,248,255)"/><stop offset="98.33333333333333%" stop-opacity="1" style="stop-color:rgb(203,217,223)"/></linearGradient><path d=" M 89.09 112.59 L 88.13 107.68 L 97.94 105.76 L 98.91 110.66 C 99.48 113.59 99.77 116.57 99.76 119.55 C 99.75 123.92 99.19 128.27 98.09 132.5 C 97.12 136.31 95.72 139.99 93.91 143.47 C 93.11 145.01 92.2 146.5 91.2 147.92 C 90.3 149.22 89.28 150.43 88.17 151.54 C 87.12 152.6 85.94 153.51 84.65 154.25 C 83.21 155.08 81.6 155.54 79.94 155.58 C 78.14 155.6 76.38 155.02 74.94 153.92 C 73.64 152.9 72.61 151.57 71.95 150.05 C 71.3 148.58 70.85 147.02 70.62 145.42 C 70.33 143.54 70.2 141.64 70.22 139.74 C 70.23 137.8 70.32 135.87 70.51 133.94 C 70.72 131.62 71.02 129.31 71.39 127.01 C 71.83 124.28 72.34 121.56 72.92 118.86 C 73.6 115.68 74.35 112.52 75.16 109.37 L 76.41 104.53 L 86.09 107.03 L 84.84 111.88 C 84.06 114.89 83.35 117.91 82.7 120.95 C 82.15 123.49 81.67 126.04 81.26 128.61 C 80.93 130.69 80.66 132.78 80.46 134.88 C 80.31 136.52 80.23 138.16 80.22 139.81 C 80.2 141.2 80.3 142.59 80.51 143.96 C 80.56 144.26 80.62 144.56 80.69 144.85 C 80.82 144.74 80.95 144.62 81.07 144.5 C 81.78 143.79 82.44 143.01 83.01 142.18 C 83.76 141.12 84.44 140.01 85.04 138.86 C 86.5 136.05 87.62 133.08 88.4 130.01 C 89.29 126.59 89.75 123.07 89.76 119.53 C 89.76 117.2 89.54 114.87 89.09 112.59 Z " fill="url(#_lgradient_2)"/><path d=" M 193.863 225.702 C 210.838 218.253 235.162 211.087 179.875 213.899 C 124.587 216.71 66.286 225.593 85.521 233.3 C 104.755 241.007 176.888 233.152 193.863 225.702 Z " fill="rgb(0,0,0)" fill-opacity="0.2"/><path d=" M 82.369 103.122 C 61.645 100.997 104.024 123.482 70.679 185.389 C 37.334 247.297 230.761 240.654 223.72 185.389 C 216.679 130.124 182.036 91.114 184.397 81.866 C 185.991 75.622 103.094 105.248 82.369 103.122 Z " fill="rgb(231,248,255)"/><path d=" M 94.81 196.42 C 94.59 196.57 94.32 196.62 94.06 196.56 C 93.8 196.51 93.57 196.35 93.43 196.13 C 93.28 195.91 93.23 195.64 93.29 195.38 C 93.34 195.12 93.49 194.89 93.72 194.75 C 102.17 189.22 111.03 184.35 120.23 180.18 C 127.37 176.95 134.81 174.44 142.45 172.68 C 146.06 171.85 149.71 171.22 153.38 170.79 C 156.79 170.39 160.22 170.19 163.65 170.2 C 166.91 170.21 170.16 170.41 173.4 170.81 C 176.56 171.19 179.7 171.77 182.8 172.54 C 183.06 172.6 183.28 172.77 183.41 173 C 183.55 173.22 183.59 173.49 183.53 173.75 C 183.46 174.01 183.3 174.23 183.07 174.37 C 182.85 174.5 182.57 174.55 182.32 174.48 C 179.3 173.73 176.24 173.17 173.16 172.79 C 170 172.41 166.82 172.21 163.64 172.2 C 160.29 172.2 156.94 172.39 153.62 172.77 C 150.01 173.2 146.43 173.81 142.9 174.63 C 135.39 176.36 128.07 178.83 121.06 182.01 C 111.95 186.13 103.18 190.95 94.81 196.42 Z " fill="rgb(102,119,132)"/><path d=" M 119.93 141.25 C 119.97 140.99 120.11 140.76 120.32 140.6 C 120.54 140.44 120.8 140.37 121.07 140.41 C 121.33 140.45 121.56 140.59 121.72 140.8 C 121.88 141.02 121.95 141.28 121.91 141.55 C 121.76 142.59 121.38 143.59 120.8 144.48 C 120.24 145.34 119.54 146.1 118.72 146.73 C 117.92 147.36 117.02 147.85 116.07 148.2 C 115.15 148.55 114.17 148.73 113.18 148.74 C 112.4 148.75 111.63 148.61 110.91 148.34 C 110.16 148.06 109.48 147.61 108.93 147.03 C 108.34 146.39 107.89 145.62 107.62 144.79 C 107.3 143.79 107.14 142.75 107.16 141.71 L 107.17 141.39 C 107.17 141.12 107.28 140.87 107.47 140.68 C 107.66 140.5 107.91 140.4 108.18 140.4 C 108.44 140.4 108.7 140.51 108.88 140.7 C 109.07 140.89 109.17 141.15 109.17 141.41 L 109.16 141.74 C 109.16 141.74 109.16 141.74 109.16 141.74 C 109.15 142.57 109.27 143.39 109.52 144.17 C 109.7 144.73 110 145.23 110.39 145.66 C 110.73 146.02 111.15 146.3 111.61 146.47 C 112.11 146.66 112.63 146.75 113.16 146.74 C 113.92 146.74 114.67 146.59 115.37 146.33 C 116.14 146.05 116.86 145.65 117.5 145.15 C 118.14 144.66 118.69 144.06 119.12 143.39 C 119.54 142.74 119.82 142.01 119.93 141.25 Z " fill="rgb(102,119,132)"/><path d=" M 150.2 133.51 C 150.13 133.25 150.16 132.98 150.29 132.75 C 150.41 132.51 150.63 132.34 150.88 132.27 C 151.14 132.19 151.41 132.22 151.64 132.35 C 151.88 132.48 152.05 132.69 152.12 132.95 C 152.28 133.49 152.36 134.05 152.36 134.62 C 152.35 135.69 152.07 136.75 151.55 137.69 C 151.04 138.62 150.35 139.45 149.53 140.13 C 148.72 140.83 147.79 141.38 146.79 141.78 C 145.8 142.18 144.74 142.39 143.68 142.4 C 142.38 142.42 141.11 142.04 140.03 141.32 C 139.46 140.92 138.96 140.43 138.54 139.86 C 138.09 139.23 137.72 138.54 137.47 137.81 C 137.38 137.56 137.39 137.28 137.51 137.05 C 137.62 136.81 137.83 136.62 138.08 136.53 C 138.33 136.45 138.61 136.46 138.84 136.58 C 139.08 136.69 139.27 136.9 139.35 137.15 C 139.55 137.7 139.82 138.21 140.16 138.68 C 140.44 139.06 140.78 139.39 141.16 139.66 C 141.9 140.16 142.77 140.41 143.65 140.4 C 144.47 140.39 145.29 140.23 146.05 139.92 C 146.85 139.61 147.59 139.16 148.25 138.6 C 148.88 138.08 149.41 137.44 149.8 136.72 C 150.16 136.07 150.35 135.35 150.36 134.61 C 150.36 134.24 150.31 133.87 150.2 133.51 Z " fill="rgb(102,119,132)"/><path d=" M 180.63 92.09 C 179.81 91.05 179.44 89.73 179.59 88.41 C 179.75 87.09 180.42 85.89 181.46 85.07 C 182.5 84.25 183.83 83.88 185.15 84.03 C 186.46 84.19 187.66 84.87 188.49 85.91 C 191.87 90.2 194.51 95.03 196.31 100.2 C 197.83 104.56 198.63 109.14 198.66 113.76 C 198.67 116.12 198.43 118.47 197.94 120.77 C 197.51 122.85 196.8 124.87 195.82 126.75 C 195.35 127.65 194.8 128.5 194.17 129.3 C 193.55 130.08 192.84 130.8 192.06 131.42 C 190.33 132.81 188.19 133.59 185.97 133.62 C 184.48 133.62 183.01 133.28 181.67 132.62 C 180.39 131.99 179.21 131.15 178.2 130.13 C 177.14 129.06 176.2 127.87 175.4 126.59 C 174.49 125.13 173.7 123.6 173.03 122.02 C 172.23 120.15 171.55 118.24 170.97 116.3 C 170.28 113.98 169.7 111.64 169.22 109.28 C 168.65 106.48 168.17 103.67 167.8 100.84 C 167.36 97.53 167.01 94.2 166.76 90.87 C 166.65 89.55 167.08 88.24 167.95 87.24 C 168.81 86.23 170.04 85.61 171.36 85.51 C 172.68 85.41 173.99 85.84 175 86.7 C 176 87.57 176.63 88.79 176.73 90.12 C 176.96 93.26 177.29 96.4 177.71 99.52 C 178.05 102.12 178.49 104.71 179.02 107.28 C 179.44 109.36 179.95 111.42 180.56 113.46 C 181.03 115.04 181.59 116.6 182.23 118.12 C 182.7 119.22 183.25 120.29 183.89 121.31 C 184.29 121.95 184.76 122.55 185.3 123.08 C 185.48 123.26 185.67 123.42 185.89 123.55 C 186.05 123.42 186.19 123.27 186.31 123.11 C 186.56 122.8 186.77 122.48 186.95 122.13 C 187.51 121.05 187.91 119.91 188.15 118.72 C 188.5 117.11 188.67 115.47 188.66 113.82 C 188.64 110.3 188.03 106.81 186.87 103.49 C 185.44 99.37 183.33 95.52 180.63 92.09 Z " fill="rgb(0,0,0)" fill-opacity="0.1"/><linearGradient id="_lgradient_3" x1="0.4360785631303479" y1="0.2644297796601043" x2="0.9219063204021927" y2="1.0642734950942871" gradientTransform="matrix(40.51,0,0,54.3,165.89,80.96)" gradientUnits="userSpaceOnUse"><stop offset="0%" stop-opacity="1" style="stop-color:rgb(231,248,255)"/><stop offset="98.33333333333333%" stop-opacity="1" style="stop-color:rgb(203,217,223)"/></linearGradient><path d=" M 181.29 91.84 L 177.45 88.63 L 183.86 80.96 L 187.7 84.16 C 190.81 86.76 193.66 89.64 196.22 92.78 C 198.45 95.51 200.4 98.46 202.02 101.59 C 203.44 104.33 204.55 107.21 205.33 110.2 C 206.02 112.82 206.38 115.51 206.4 118.22 C 206.41 120.29 206.17 122.35 205.66 124.36 C 205.2 126.23 204.43 128.01 203.38 129.64 C 202.34 131.27 200.93 132.65 199.28 133.66 C 197.54 134.71 195.54 135.27 193.5 135.26 C 191.99 135.25 190.49 134.96 189.08 134.41 C 187.63 133.85 186.27 133.08 185.04 132.13 C 183.7 131.1 182.47 129.93 181.37 128.64 C 180.12 127.17 178.98 125.61 177.98 123.97 C 176.8 122.05 175.74 120.06 174.81 118.02 C 173.71 115.62 172.73 113.18 171.86 110.69 C 170.86 107.79 169.96 104.84 169.19 101.87 C 168.29 98.42 167.5 94.94 166.83 91.43 L 165.89 86.52 L 175.71 84.64 L 176.65 89.55 C 177.28 92.84 178.02 96.1 178.86 99.34 C 179.57 102.06 180.39 104.76 181.31 107.41 C 182.07 109.6 182.93 111.75 183.9 113.85 C 184.66 115.53 185.54 117.16 186.5 118.74 C 187.24 119.94 188.07 121.08 188.98 122.15 C 189.63 122.91 190.35 123.6 191.14 124.2 C 191.62 124.57 192.15 124.88 192.72 125.1 C 192.98 125.2 193.26 125.26 193.55 125.26 C 193.74 125.26 193.92 125.21 194.09 125.12 C 194.44 124.89 194.74 124.59 194.97 124.24 C 195.42 123.53 195.76 122.75 195.96 121.93 C 196.26 120.74 196.41 119.52 196.4 118.29 C 196.39 116.42 196.14 114.55 195.66 112.73 C 195.07 110.47 194.23 108.28 193.15 106.2 C 191.84 103.68 190.28 101.31 188.48 99.11 C 186.32 96.46 183.91 94.03 181.29 91.84 Z " fill="url(#_lgradient_3)"/></g></g></svg>